<svg xmlns="http://www.w3.org/2000/svg" xmlns:xlink="http://www.w3.org/1999/xlink" width="222" height="74" viewBox="0 0 222 74">
  <defs>
    <clipPath id="clip-path">
      <rect id="Rectangle_23" data-name="Rectangle 23" width="222" height="74" transform="translate(130 28)" fill="#fff"/>
    </clipPath>
  </defs>
  <g id="Group_14" data-name="Group 14" transform="translate(-130 -28)" clip-path="url(#clip-path)">
    <path id="Path_11567" data-name="Path 11567" d="M165.938,102.28c19.848,0,35.938-16.628,35.938-37.14S185.786,28,165.938,28,130,44.628,130,65.14,146.09,102.28,165.938,102.28Z" transform="translate(0 0)" fill="#fff"/>
    <path id="Path_11568" data-name="Path 11568" d="M181.853,57.447c-.407.667-.75,1.356-1.135,2.023-.449.753-.878,1.549-1.285,2.324a16.689,16.689,0,0,1-.856,1.485c-.322.517-.557,1.054-.857,1.592q-.611,1.1-1.22,2.195c-.557.99-1.071,1.98-1.671,2.948-.386.646-.749,1.334-1.113,2.023-.386.71-.771,1.442-1.178,2.152-.321.559-.621,1.14-.942,1.7-.429.732-.836,1.463-1.243,2.195-.343.624-.707,1.248-1.028,1.894-.343.71-.813,1.334-1.092,2.044-.235.021-.192-.129-.257-.215-.685-1.1-1.263-2.281-1.927-3.378-.321-.559-.622-1.14-.943-1.7-.428-.732-.813-1.485-1.242-2.195-.321-.538-.578-1.1-.9-1.635-.643-1.1-1.243-2.238-1.885-3.335-.386-.667-.793-1.377-1.135-2.087a16.34,16.34,0,0,0-.985-1.678c-.064-.086-.064-.194-.107-.258-.6-1.119-1.2-2.238-1.841-3.335-.536-.9-1.028-1.851-1.542-2.776-.728-1.291-1.457-2.6-2.163-3.895-.707-1.27-1.563-2.733-2.291-4.088a4.269,4.269,0,0,0-.429-.473.119.119,0,0,1,.086-.194l4.09.022a.836.836,0,0,1,.471.3,18.311,18.311,0,0,1,1.435,2.475c.085.194.192.387.278.581.664,1.334,1.435,2.6,2.12,3.916.514.99,1.092,1.98,1.649,2.969.6,1.076,1.114,2.173,1.735,3.228.578.968,1.092,1.98,1.627,2.969.707,1.27,1.329,2.6,2.1,3.852.536.882,1.007,1.807,1.478,2.711.064.129.172.258.235.387.064.108.107.215.172.323.086-.086.192-.129.214-.215.3-.9.964-1.592,1.264-2.5l.449-.9a24.957,24.957,0,0,1,1.692-2.8c.15-.215.215-.473.343-.689.643-1.291,1.35-2.539,2.035-3.809.556-1.033,1.092-2.087,1.692-3.1.449-.775.878-1.549,1.328-2.324.149-.28.235-.473.343-.71.728-1.377,1.306-2.5,2.013-3.766a9.7,9.7,0,0,1,1.778-2.711c.214-.172.278-.129.3-.172l4.262-.021-.321.3c-.172.3-.364.624-.536.925a37.558,37.558,0,0,1-1.992,3.529" transform="translate(-2.165 -2.399)" fill="#f4f4f4"/>
    <path id="Path_11569" data-name="Path 11569" d="M184.213,50.876a.376.376,0,0,1,.364-.151H194c.064,0,.085.043.042.108s-.77,1.227-.856,1.377v.022l-.086.172c-.278.624-.557,1.054-.878,1.657-.514.925-1.007,1.872-1.585,2.754-.257.387-.449.839-.685,1.27-.471.882-.985,1.743-1.478,2.6-.621,1.1-1.242,2.216-1.884,3.314l-2.056,3.615c-.493.861-.964,1.721-1.478,2.561-.321.538-.6,1.1-.921,1.635-.514.9-.985,1.808-1.542,2.69-.257.387-.449.839-.685,1.27-.492.925-1.028,1.85-1.563,2.754-.685,1.162-1.286,2.367-1.992,3.507-.514.839-.985,1.721-1.477,2.561-.321.538-.621,1.076-.9,1.635-.514.968-1.028,1.915-1.627,2.819a7.479,7.479,0,0,1-2.163,2.259,10.674,10.674,0,0,1-1.735.667,8.553,8.553,0,0,1-2.1.151,6.91,6.91,0,0,1-2.612-.6,6.246,6.246,0,0,1-.942-.689,4.164,4.164,0,0,1-.814-.818c-.235-.3-.429-.559-.664-.882a11.6,11.6,0,0,1-.707-1.076c-.557-1.011-1.092-2.044-1.692-3.056-.514-.839-.985-1.721-1.478-2.561-.321-.56-.642-1.119-.964-1.7-.557-.99-1.071-1.98-1.67-2.948-.321-.517-.6-1.1-.9-1.635-.578-.99-1.114-2.023-1.713-3.013-.3-.495-.557-1.054-.878-1.571-.6-1.011-1.135-2.066-1.756-3.077-.3-.495-.579-1.054-.879-1.571-.6-1.011-1.134-2.066-1.756-3.077-.235-.366-.214-.387-.449-.775l-.215-.323c0-.022-.171-.28-.171-.3-.321-.646-.45-.99-.793-1.571-.429-.71-1.092-1.829-1.606-2.754-.279-.473-.557-.968-.814-1.442-.45-.9-1.071-1.937-1.627-2.969-.493-.9-1.007-1.808-1.564-2.69-.064-.086-.106-.258-.043-.28a1.01,1.01,0,0,1,.407-.043h8.867a1.218,1.218,0,0,1,.621.086.287.287,0,0,1,.128.151c.129.258.172.323.258.495.77,1.291,1.435,2.6,2.142,3.916.727,1.313,1.434,2.6,2.162,3.895.514.925,1.007,1.851,1.542,2.776.642,1.1,1.242,2.216,1.842,3.335.042.086.064.172.106.258.343.559.685,1.1.985,1.678.343.71.728,1.4,1.135,2.087.642,1.1,1.243,2.238,1.885,3.335.321.538.578,1.119.9,1.635.429.732.814,1.485,1.242,2.195.322.559.6,1.14.943,1.7.664,1.119,1.242,2.281,1.927,3.378h.364c.278-.624.707-1.183,1.007-1.829s.685-1.27,1.028-1.894c.407-.732.814-1.485,1.243-2.195.321-.559.621-1.14.942-1.7.429-.71.793-1.442,1.178-2.152.364-.667.727-1.356,1.113-2.023.579-.968,1.092-1.98,1.671-2.948q.641-1.1,1.22-2.195c.278-.516.535-1.076.857-1.592.3-.495.6-.99.856-1.485.407-.8.814-1.592,1.285-2.324.407-.667.75-1.356,1.135-2.023.364-.581.578-1.076.921-1.678a.534.534,0,0,1,.107-.151l.021-.022c.536-.968,1.285-2.432,1.992-3.637C183.849,51.5,184.041,51.177,184.213,50.876Z" transform="translate(-1.012 -2.391)" fill="#0c0c0c"/>
    <path id="Path_11570" data-name="Path 11570" d="M248.217,83.827a4.812,4.812,0,0,1-1.521-.215,3.323,3.323,0,0,1-1.8-1.248c-1.392-1.98-2.784-3.938-4.176-5.9-2.849-4.045-5.719-8.112-8.567-12.158q-3.276-4.648-6.532-9.3a1.78,1.78,0,0,1,.514-2.862,3.909,3.909,0,0,1,3.191-.667,2.341,2.341,0,0,1,1.456,1.011c1.243,1.786,2.463,3.572,3.706,5.38,3.319,4.8,6.639,9.576,9.937,14.374,1.157,1.678,2.313,3.357,3.47,5.014.086.129.192.28.278.409a.232.232,0,0,0,.407.021,7.971,7.971,0,0,0,.493-.689c2.013-2.948,4.048-5.9,6.061-8.865q5.4-7.876,10.773-15.751a2.246,2.246,0,0,1,2.185-.99,3.8,3.8,0,0,1,2.42.99,1.732,1.732,0,0,1,.321,2.5c-2.784,4-5.568,7.983-8.331,11.985-2.077,2.991-4.176,5.982-6.254,8.994-1.435,2.044-2.849,4.11-4.284,6.154A4.064,4.064,0,0,1,248.217,83.827Z" transform="translate(-10.018 -2.462)" fill="#fff"/>
    <path id="Path_11571" data-name="Path 11571" d="M340.02,83.823a4.305,4.305,0,0,1-1.521-.237,3.359,3.359,0,0,1-1.8-1.27c-1.392-1.98-2.784-3.938-4.176-5.9-2.849-4.045-5.719-8.112-8.567-12.158q-3.276-4.648-6.532-9.3a1.773,1.773,0,0,1,.536-2.862,3.823,3.823,0,0,1,3.191-.646,2.341,2.341,0,0,1,1.456,1.011c1.221,1.786,2.463,3.572,3.706,5.379,3.319,4.8,6.639,9.575,9.937,14.374,1.157,1.678,2.313,3.357,3.47,5.014.086.129.192.28.278.409a.225.225,0,0,0,.407,0,8.169,8.169,0,0,0,.493-.689c2.184-3.185,4.347-6.369,6.532-9.554,3.427-5.014,6.875-10.027,10.3-15.041a2.286,2.286,0,0,1,2.185-.99,3.7,3.7,0,0,1,2.356.947,1.759,1.759,0,0,1,.364,2.561c-2.784,4-5.568,7.983-8.331,11.985-2.056,2.948-4.112,5.917-6.168,8.865-1.435,2.066-2.87,4.153-4.327,6.219A4.032,4.032,0,0,1,340.02,83.823Z" transform="translate(-19.687 -2.458)" fill="#fff"/>
    <path id="Path_11572" data-name="Path 11572" d="M290.551,64.778v-11.1c0-1.571.343-1.98,1.863-2.259a6.41,6.41,0,0,1,2.635.108,1.665,1.665,0,0,1,1.328,1.463,8.687,8.687,0,0,1,.064,1.054c0,6.95.021,13.922-.021,20.872a3.052,3.052,0,0,0,1.778,2.9,8.278,8.278,0,0,0,3.983.925c2.206.043,4.433.022,6.639.022h15.805a5.436,5.436,0,0,1,1.178.086,1.152,1.152,0,0,1,.942.839,5.231,5.231,0,0,1,0,3.034,1.155,1.155,0,0,1-.942.839,3.659,3.659,0,0,1-.964.086c-7.26,0-14.5.021-21.759-.022a23.568,23.568,0,0,1-6.361-.818,10.117,10.117,0,0,1-3.9-1.958,6.314,6.314,0,0,1-2.291-4.863c.021-3.7.043-7.467.021-11.211Z" transform="translate(-16.907 -2.457)" fill="#fff"/>
    <path id="Path_11573" data-name="Path 11573" d="M279.492,67.509V54.018a6.64,6.64,0,0,1,.085-1.119,1.586,1.586,0,0,1,1.178-1.334,5.8,5.8,0,0,1,3.577.065,1.4,1.4,0,0,1,1.028,1.291,10.218,10.218,0,0,1,.107,1.4V80.872c0,.473-.064.925-.107,1.4a1.444,1.444,0,0,1-.964,1.27,5.716,5.716,0,0,1-3.833,0,1.469,1.469,0,0,1-.964-1.119,6.22,6.22,0,0,1-.128-1.248Q279.5,74.331,279.492,67.509Z" transform="translate(-15.742 -2.455)" fill="#fff"/>
    <path id="Path_11574" data-name="Path 11574" d="M377.294,67.574V80.786a8.98,8.98,0,0,1-.129,1.528,1.4,1.4,0,0,1-.942,1.2,5.59,5.59,0,0,1-3.834,0,1.437,1.437,0,0,1-.964-1.119,4.832,4.832,0,0,1-.129-1.119V53.889a4.924,4.924,0,0,1,.086-.968,1.644,1.644,0,0,1,1.306-1.4,6.214,6.214,0,0,1,3.32.043,1.53,1.53,0,0,1,1.2,1.4c.043.473.107.925.107,1.4Q377.283,60.979,377.294,67.574Z" transform="translate(-25.413 -2.456)" fill="#fff"/>
  </g>
</svg>
