<svg id="Group_23" data-name="Group 23" xmlns="http://www.w3.org/2000/svg" width="28.81" height="24.898" viewBox="0 0 28.81 24.898">
  <path id="Path_16" data-name="Path 16" d="M1748.47,79.447h-23.22a5.647,5.647,0,0,1-.66-.206,2.229,2.229,0,0,1-1.49-2.117V63.454a2.486,2.486,0,0,1,2.36-2.1c.73-.06,1.46-.02,2.19-.033a1.41,1.41,0,0,0,.66-.153q5.04-2.548,10.1-5.083c.91-.445,1.79-.942,2.73-1.334a2.8,2.8,0,0,1,1.89-.066,2.677,2.677,0,0,1,1.53,1.161c1.15,1.759,2.32,3.51,3.48,5.269a.647.647,0,0,0,.48.292,2.416,2.416,0,0,1,2.06,1.851,11.624,11.624,0,0,1,.05,1.865c.01.564-.25.783-.9.783h-4.02a9.675,9.675,0,0,0-.98.04,4.955,4.955,0,0,0-4.48,3.657A4.365,4.365,0,0,0,1743,74.39a6.878,6.878,0,0,0,2.77.5c1.35.007,2.69,0,4.05,0,.54,0,.8.226.8.7q.015.776,0,1.553a2.008,2.008,0,0,1-.28,1.029A2.725,2.725,0,0,1,1748.47,79.447Zm-17.59-18.183a.079.079,0,0,0,.01.046h2.21a.569.569,0,0,0,.26-.08q4.815-2.429,9.64-4.844c.21-.106.21-.192.05-.332a1.456,1.456,0,0,0-1.63-.106q-5.16,2.6-10.34,5.2A1.648,1.648,0,0,0,1730.88,61.264Zm10.31.013a.824.824,0,0,0,.11.04c1.68,0,3.37,0,5.05.007.23,0,.19-.086.11-.206-.36-.544-.73-1.088-1.08-1.646-.12-.179-.22-.2-.42-.093-1,.518-2.02,1.022-3.02,1.526C1741.7,61.025,1741.46,61.145,1741.19,61.277Z" transform="translate(-1723.1 -54.549)" fill="#fff"/>
  <path id="Path_17" data-name="Path 17" d="M1751.91,72.452a2.124,2.124,0,0,1-2.29,1.38c-1.39-.027-2.78,0-4.18-.007a3.842,3.842,0,0,1-3.98-2.867,3.5,3.5,0,0,1,3.16-3.915,5.359,5.359,0,0,1,.79-.053c1.38,0,2.77.027,4.15-.007a2.166,2.166,0,0,1,2.35,1.34Zm-5.3-2.057a1.164,1.164,0,0,0-1.26-1.088,1.177,1.177,0,0,0-1.25,1.1,1.189,1.189,0,0,0,1.27,1.095A1.171,1.171,0,0,0,1746.61,70.4Z" transform="translate(-1723.1 -54.549)" fill="#fff"/>
</svg>
